# xmcd
#
# Track frame offsets: 
#        150
#        13580
#        23428
#        42092
#        56855
#        71230
#        86455
#        103343
#        116704
#        133217
#        140872
#        151747
#        168388
#        183038
#        203017
#        222096
#        240657
#        259096
#        267302
#
# Disc length: 3749 seconds
#
# Revision: 0
# Processed by: cddbd v1.5.2PL0 Copyright (c) Steve Scherf et al.
# Submitted via: ExactAudioCopy v1.3
#
DISCID=100ea313
DTITLE=Nikola Pejaković Kolja - Četiri prsta
DYEAR=2018
DGENRE=Blues
TTITLE0=Ala je lep ovaj svet
TTITLE1=Četiri prsta
TTITLE2=Starost neće nikoga da čeka
TTITLE3=Došla si kasno
TTITLE4=Oj, duledu
TTITLE5=Ja nisam mrava zgazio
TTITLE6=Slika pokojnog druga
TTITLE7=Kad sam na ovaj svet pao
TTITLE8=Sad je već velika
TTITLE9=Land of hope
TTITLE10=Ožalošćena
TTITLE11=Nema me bez nje
TTITLE12=Nebitno
TTITLE13=Život je san
TTITLE14=Može, malo sutra
TTITLE15=Ubio sam ženu koju volim
TTITLE16=Svaku noć je isti mrak
TTITLE17=Januarska
TTITLE18=Uzmi ovu pesmu
EXTD=
EXTT0=
EXTT1=
EXTT2=
EXTT3=
EXTT4=
EXTT5=
EXTT6=
EXTT7=
EXTT8=
EXTT9=
EXTT10=
EXTT11=
EXTT12=
EXTT13=
EXTT14=
EXTT15=
EXTT16=
EXTT17=
EXTT18=
PLAYORDER=
